<?xml version="1.0" encoding="utf-8"?>
<!-- Generator: Adobe Illustrator 23.0.0, SVG Export Plug-In . SVG Version: 6.00 Build 0)  -->
<!DOCTYPE svg PUBLIC "-//W3C//DTD SVG 1.1//EN" "http://www.w3.org/Graphics/SVG/1.1/DTD/svg11.dtd" [
	<!ENTITY ns_extend "http://ns.adobe.com/Extensibility/1.0/">
	<!ENTITY ns_ai "http://ns.adobe.com/AdobeIllustrator/10.0/">
	<!ENTITY ns_graphs "http://ns.adobe.com/Graphs/1.0/">
	<!ENTITY ns_vars "http://ns.adobe.com/Variables/1.0/">
	<!ENTITY ns_imrep "http://ns.adobe.com/ImageReplacement/1.0/">
	<!ENTITY ns_sfw "http://ns.adobe.com/SaveForWeb/1.0/">
	<!ENTITY ns_custom "http://ns.adobe.com/GenericCustomNamespace/1.0/">
	<!ENTITY ns_adobe_xpath "http://ns.adobe.com/XPath/1.0/">
]>
<svg version="1.1" xmlns:x="&ns_extend;" xmlns:i="&ns_ai;" xmlns:graph="&ns_graphs;"
	 xmlns="http://www.w3.org/2000/svg" xmlns:xlink="http://www.w3.org/1999/xlink" x="0px" y="0px" viewBox="0 0 434.97 361.83"
	 style="enable-background:new 0 0 434.97 361.83;" xml:space="preserve">
<style type="text/css">
	.st0{fill:#FFFFFF;stroke:#000000;stroke-width:2.4232;stroke-linecap:round;stroke-linejoin:round;stroke-miterlimit:10;}
	.st1{fill:#B1DAFF;}
	.st2{fill:none;stroke:#000000;stroke-width:2.4232;stroke-linecap:round;stroke-linejoin:round;}
	.st3{fill:none;stroke:#000000;stroke-width:2.4232;stroke-linecap:round;stroke-linejoin:round;stroke-dasharray:7.689,7.689;}
	.st4{fill:none;stroke:#000000;stroke-width:2.4232;stroke-linecap:round;stroke-linejoin:round;stroke-dasharray:7.5527,7.5527;}
	.st5{fill:#74C0E1;}
	.st6{fill:#F1F6F8;stroke:#000000;stroke-width:2.4232;stroke-linecap:round;stroke-linejoin:round;stroke-miterlimit:10;}
	.st7{fill:none;stroke:#000000;stroke-width:2.4232;stroke-linecap:round;stroke-linejoin:round;stroke-miterlimit:10;}
	.st8{fill:none;stroke:#000000;stroke-width:2.7044;stroke-linecap:round;stroke-miterlimit:10;}
	.st9{fill:#F1F6F8;}
	.st10{fill:#FEAAA8;}
	.st11{fill:#FFCA04;}
</style>
<metadata>
	<sfw  xmlns="&ns_sfw;">
		<slices></slices>
		<sliceSourceBounds  bottomLeftOrigin="true" height="361.83" width="374.34" x="1209.15" y="-428.98"></sliceSourceBounds>
		<optimizationSettings>
			<targetSettings  fileFormat="JPEGFormat" targetSettingsID="0">
				
					<JPEGFormat  blurAmount="0" embedICCProfile="false" matteColor="#FFFFFF" noMatteColor="false" optimized="true" progressive="false" quality="100">
					</JPEGFormat>
			</targetSettings>
		</optimizationSettings>
	</sfw>
</metadata>
<g id="OBJECTS">
	<g>
		<g>
			<g>
				<path d="M137.24,317.5l-0.18-13.13l30.16-41.63l12.83-0.17l0.57,42.54l9.4-0.13l0.16,11.82l-9.4,0.13l0.22,16.37l-13.64,0.18
					l-0.22-16.37L137.24,317.5z M166.35,280.73l-17.96,24.8l18.59-0.25l-0.33-24.55L166.35,280.73z"/>
				<path d="M195.5,280.08c1.32-4.7,3.14-8.48,5.46-11.34c2.32-2.86,5.04-4.92,8.15-6.17c3.12-1.26,6.43-1.91,9.93-1.95
					c3.57-0.05,6.93,0.51,10.08,1.68c3.15,1.17,5.94,3.15,8.37,5.95c2.43,2.8,4.37,6.53,5.81,11.19c1.44,4.66,2.21,10.43,2.3,17.3
					c0.1,7.07-0.52,12.99-1.83,17.76c-1.32,4.77-3.15,8.58-5.51,11.44c-2.35,2.86-5.09,4.92-8.2,6.17
					c-3.12,1.25-6.46,1.9-10.03,1.95c-3.5,0.05-6.83-0.52-9.98-1.68c-3.15-1.17-5.92-3.15-8.32-5.95c-2.4-2.8-4.32-6.56-5.76-11.29
					c-1.44-4.73-2.21-10.63-2.31-17.7C193.57,290.57,194.18,284.78,195.5,280.08z M208.31,304.57c0.17,2.86,0.63,5.62,1.37,8.27
					c0.74,2.65,1.9,4.91,3.48,6.78c1.57,1.87,3.81,2.78,6.71,2.74c2.96-0.04,5.22-1.01,6.78-2.92c1.56-1.91,2.67-4.2,3.34-6.87
					c0.67-2.67,1.05-5.44,1.15-8.3c0.1-2.87,0.13-5.31,0.1-7.33c-0.02-1.21-0.05-2.68-0.11-4.4c-0.06-1.72-0.22-3.48-0.48-5.3
					c-0.26-1.82-0.62-3.61-1.08-5.39c-0.46-1.78-1.14-3.37-2.04-4.77c-0.89-1.4-2.02-2.53-3.38-3.39c-1.36-0.86-3.02-1.27-4.97-1.25
					c-1.96,0.03-3.58,0.49-4.88,1.38c-1.3,0.89-2.36,2.05-3.19,3.48c-0.82,1.43-1.46,3.04-1.91,4.83c-0.45,1.79-0.76,3.6-0.94,5.42
					c-0.18,1.82-0.27,3.59-0.28,5.31c-0.01,1.72-0.01,3.18,0.01,4.4C208.03,299.27,208.13,301.71,208.31,304.57z"/>
				<path d="M249.59,315.99l-0.18-13.13l30.16-41.63l12.83-0.17l0.57,42.54l9.4-0.13l0.16,11.82l-9.4,0.13l0.22,16.37l-13.64,0.18
					l-0.22-16.37L249.59,315.99z M278.71,279.22l-17.96,24.8l18.59-0.25l-0.33-24.55L278.71,279.22z"/>
			</g>
			<g>
				<path d="M144.2,348.59c0.82-0.01,1.53,0.1,2.11,0.33c0.58,0.23,1.05,0.54,1.42,0.93c0.37,0.39,0.64,0.83,0.81,1.33
					c0.17,0.5,0.26,1.02,0.27,1.56c0.01,0.53-0.07,1.05-0.23,1.56c-0.16,0.51-0.42,0.97-0.77,1.36c-0.36,0.4-0.82,0.72-1.4,0.97
					c-0.57,0.25-1.27,0.38-2.1,0.39l-3.04,0.04l0.06,4.72l-2.89,0.04l-0.18-13.15L144.2,348.59z M143.49,354.8
					c0.33,0,0.65-0.03,0.96-0.09c0.31-0.05,0.58-0.15,0.81-0.3c0.23-0.14,0.42-0.35,0.55-0.61c0.14-0.26,0.2-0.6,0.2-1.02
					c-0.01-0.42-0.08-0.75-0.23-1.01c-0.14-0.26-0.34-0.45-0.57-0.59c-0.24-0.14-0.51-0.23-0.81-0.27
					c-0.31-0.04-0.63-0.07-0.96-0.06l-2.25,0.03l0.05,3.94L143.49,354.8z"/>
				<path d="M155.75,348.44l5.1,13.09l-3,0.04l-1.03-2.92l-4.92,0.07l-0.99,2.94l-2.91,0.04l4.8-13.22L155.75,348.44z
					 M156.03,356.51l-1.72-4.8h-0.04l-1.65,4.85L156.03,356.51z"/>
				<path d="M169.78,361.31c-0.62,0.27-1.25,0.41-1.89,0.42c-1.01,0.01-1.92-0.15-2.72-0.49c-0.81-0.34-1.49-0.81-2.06-1.42
					s-0.99-1.32-1.3-2.15c-0.31-0.82-0.46-1.72-0.48-2.68c-0.01-0.98,0.12-1.9,0.4-2.74c0.28-0.84,0.7-1.58,1.24-2.22
					c0.54-0.63,1.22-1.13,2.02-1.5c0.8-0.37,1.7-0.56,2.71-0.57c0.68-0.01,1.33,0.08,1.97,0.28c0.63,0.19,1.21,0.48,1.73,0.87
					c0.51,0.39,0.94,0.87,1.28,1.44c0.34,0.57,0.55,1.23,0.63,1.98l-2.76,0.04c-0.18-0.73-0.52-1.28-1.02-1.64
					c-0.5-0.36-1.09-0.54-1.79-0.53c-0.65,0.01-1.2,0.14-1.65,0.4c-0.45,0.26-0.81,0.6-1.09,1.03c-0.28,0.43-0.48,0.91-0.6,1.45
					c-0.12,0.54-0.18,1.1-0.17,1.68c0.01,0.55,0.08,1.09,0.21,1.61c0.14,0.52,0.35,0.99,0.64,1.4c0.29,0.41,0.66,0.74,1.12,0.99
					c0.46,0.25,1.01,0.36,1.66,0.36c0.96-0.01,1.69-0.26,2.21-0.76c0.52-0.49,0.81-1.2,0.88-2.12l-2.91,0.04l-0.03-2.16l5.53-0.07
					l0.09,7.11l-1.84,0.02l-0.31-1.49C170.97,360.56,170.41,361.04,169.78,361.31z"/>
				<path d="M185.64,348.04l0.03,2.43l-6.94,0.09l0.04,2.82l6.38-0.09l0.03,2.25l-6.37,0.09l0.04,3.22l7.09-0.1l0.03,2.43
					l-9.99,0.13l-0.18-13.15L185.64,348.04z"/>
				<path d="M195.73,347.9l5.61,8.75h0.04l-0.12-8.82l2.71-0.04l0.18,13.15l-2.89,0.04l-5.59-8.73l-0.04,0l0.12,8.81l-2.71,0.04
					l-0.18-13.15L195.73,347.9z"/>
				<path d="M206.43,351.66c0.28-0.84,0.7-1.58,1.24-2.22c0.54-0.63,1.22-1.13,2.02-1.5c0.8-0.37,1.7-0.56,2.71-0.57
					c1.02-0.01,1.93,0.15,2.73,0.5c0.8,0.35,1.49,0.83,2.05,1.45c0.56,0.62,0.99,1.35,1.3,2.18c0.31,0.84,0.47,1.75,0.48,2.73
					c0.01,0.96-0.12,1.85-0.41,2.69c-0.28,0.83-0.7,1.56-1.24,2.18c-0.55,0.62-1.21,1.11-2.01,1.47c-0.79,0.36-1.7,0.55-2.72,0.56
					c-1.01,0.01-1.92-0.15-2.72-0.49c-0.81-0.34-1.49-0.81-2.06-1.42c-0.56-0.61-0.99-1.32-1.3-2.15c-0.31-0.82-0.46-1.72-0.48-2.67
					C206.02,353.42,206.15,352.5,206.43,351.66z M209.14,355.97c0.14,0.52,0.35,0.99,0.64,1.4c0.29,0.41,0.66,0.74,1.12,0.99
					c0.46,0.25,1.01,0.36,1.66,0.36c0.65-0.01,1.2-0.14,1.65-0.4c0.45-0.26,0.82-0.6,1.09-1.02c0.28-0.42,0.48-0.9,0.6-1.42
					c0.12-0.52,0.18-1.06,0.17-1.61c-0.01-0.58-0.08-1.14-0.22-1.67c-0.14-0.54-0.35-1.02-0.64-1.44c-0.29-0.42-0.66-0.75-1.12-1
					c-0.46-0.25-1.01-0.36-1.66-0.36c-0.65,0.01-1.2,0.14-1.65,0.4c-0.45,0.26-0.82,0.6-1.09,1.03c-0.28,0.43-0.48,0.91-0.6,1.45
					c-0.12,0.54-0.18,1.1-0.17,1.68C208.93,354.91,209,355.45,209.14,355.97z"/>
				<path d="M219.85,350.01l-0.03-2.43l10.78-0.14l0.03,2.43l-3.94,0.05l0.14,10.72l-2.89,0.04l-0.14-10.72L219.85,350.01z"/>
				<path d="M246.47,347.22l0.03,2.43l-6.36,0.09l0.04,3.04l5.51-0.07l0.03,2.25l-5.51,0.07l0.07,5.43l-2.89,0.04l-0.18-13.15
					L246.47,347.22z"/>
				<path d="M248.07,351.1c0.28-0.85,0.7-1.59,1.24-2.22c0.54-0.63,1.22-1.13,2.02-1.5c0.8-0.37,1.7-0.56,2.71-0.57
					c1.02-0.01,1.93,0.15,2.73,0.5c0.8,0.35,1.48,0.83,2.05,1.45c0.56,0.62,0.99,1.35,1.3,2.18c0.31,0.84,0.47,1.75,0.48,2.73
					c0.01,0.96-0.12,1.85-0.41,2.69c-0.28,0.83-0.7,1.56-1.24,2.18c-0.54,0.62-1.21,1.11-2.01,1.47c-0.79,0.36-1.7,0.55-2.72,0.56
					c-1.01,0.01-1.92-0.15-2.72-0.49c-0.81-0.34-1.49-0.81-2.06-1.42c-0.56-0.61-0.99-1.32-1.3-2.15c-0.31-0.83-0.46-1.72-0.48-2.68
					C247.65,352.86,247.79,351.94,248.07,351.1z M250.77,355.41c0.14,0.52,0.35,0.99,0.64,1.4c0.29,0.41,0.66,0.74,1.12,0.99
					c0.46,0.25,1.01,0.36,1.66,0.36c0.65-0.01,1.2-0.14,1.65-0.4c0.45-0.26,0.81-0.6,1.09-1.02c0.28-0.42,0.48-0.89,0.6-1.42
					c0.12-0.52,0.18-1.06,0.17-1.62c-0.01-0.58-0.08-1.13-0.22-1.67c-0.14-0.54-0.35-1.02-0.64-1.44c-0.29-0.42-0.66-0.75-1.12-1
					c-0.46-0.25-1.01-0.36-1.66-0.36c-0.65,0.01-1.2,0.14-1.65,0.4c-0.45,0.26-0.82,0.6-1.09,1.03c-0.28,0.43-0.48,0.91-0.6,1.45
					c-0.12,0.54-0.18,1.1-0.17,1.68C250.57,354.35,250.64,354.89,250.77,355.41z"/>
				<path d="M272.32,359.03c-0.98,0.88-2.35,1.33-4.11,1.35c-1.78,0.02-3.16-0.39-4.15-1.23c-0.99-0.85-1.49-2.17-1.52-3.96
					l-0.11-8.18l2.89-0.04l0.11,8.18c0.01,0.36,0.04,0.71,0.11,1.05c0.07,0.34,0.2,0.64,0.4,0.91c0.2,0.26,0.48,0.47,0.83,0.63
					c0.35,0.16,0.82,0.24,1.41,0.23c1.03-0.01,1.74-0.25,2.13-0.72c0.39-0.46,0.57-1.19,0.56-2.17l-0.11-8.18l2.89-0.04l0.11,8.18
					C273.78,356.82,273.3,358.15,272.32,359.03z"/>
				<path d="M279.01,346.79l5.61,8.75h0.04l-0.12-8.82l2.71-0.04l0.18,13.15l-2.89,0.04l-5.59-8.73h-0.04l0.12,8.81l-2.71,0.04
					l-0.18-13.15L279.01,346.79z"/>
				<path d="M295.46,346.57c0.85-0.01,1.64,0.11,2.37,0.37c0.73,0.26,1.37,0.66,1.91,1.19c0.54,0.53,0.97,1.2,1.28,2.01
					c0.31,0.81,0.47,1.76,0.49,2.85c0.01,0.96-0.1,1.84-0.33,2.66c-0.24,0.81-0.6,1.52-1.09,2.12c-0.49,0.6-1.1,1.07-1.84,1.42
					c-0.74,0.35-1.61,0.53-2.62,0.54l-5.67,0.08l-0.18-13.15L295.46,346.57z M295.4,357.29c0.42,0,0.82-0.08,1.21-0.22
					c0.39-0.14,0.74-0.37,1.04-0.69c0.3-0.32,0.54-0.73,0.72-1.24c0.18-0.51,0.26-1.12,0.25-1.85c-0.01-0.66-0.08-1.26-0.22-1.79
					c-0.14-0.53-0.35-0.99-0.65-1.36c-0.3-0.38-0.69-0.66-1.18-0.86c-0.49-0.2-1.09-0.29-1.8-0.28l-2.06,0.03l0.11,8.29
					L295.4,357.29z"/>
			</g>
		</g>
		<g>
			<g>
				<path class="st0" d="M205.96,24.31h0.51c-2.81-7.99-10.36-13.73-19.25-13.73c-8.9,0-16.44,5.74-19.25,13.73h-1.7
					c-6.31,0-11.43,5.12-11.43,11.43v2.77h62.55v-2.77C217.39,29.43,212.28,24.31,205.96,24.31z"/>
				<path class="st1" d="M204.49,25.44h0.36c-2.01-5.71-7.4-9.81-13.75-9.81c-6.35,0-11.74,4.1-13.75,9.81h-1.21
					c-4.51,0-8.16,3.66-8.16,8.16v1.98h44.68V33.6C212.65,29.09,208.99,25.44,204.49,25.44z"/>
			</g>
			<g>
				<path class="st0" d="M112.96,241.72h0.51c-2.81-7.99-10.36-13.73-19.25-13.73c-8.9,0-16.44,5.74-19.25,13.73h-1.7
					c-6.31,0-11.43,5.12-11.43,11.43v2.77h62.55v-2.77C124.39,246.84,119.28,241.72,112.96,241.72z"/>
				<path class="st1" d="M111.49,242.85h0.36c-2.01-5.71-7.4-9.81-13.75-9.81c-6.35,0-11.74,4.1-13.75,9.81h-1.21
					c-4.51,0-8.16,3.66-8.16,8.16V253h44.68v-1.98C119.65,246.51,115.99,242.85,111.49,242.85z"/>
			</g>
			<g>
				<path class="st0" d="M371.09,108.72h0.51C368.8,100.73,361.25,95,352.35,95c-8.9,0-16.44,5.74-19.25,13.73h-1.7
					c-6.31,0-11.43,5.12-11.43,11.43v2.77h62.55v-2.77C382.53,113.84,377.41,108.72,371.09,108.72z"/>
				<path class="st1" d="M369.62,109.85h0.36c-2.01-5.71-7.4-9.81-13.75-9.81c-6.35,0-11.74,4.1-13.75,9.81h-1.21
					c-4.51,0-8.16,3.66-8.16,8.16V120h44.68v-1.98C377.78,113.51,374.13,109.85,369.62,109.85z"/>
			</g>
		</g>
		<g>
			<g>
				<g>
					<polyline class="st2" points="265.52,226.86 265.52,230.65 261.74,230.65 					"/>
					<line class="st3" x1="254.05" y1="230.65" x2="150.24" y2="230.65"/>
					<polyline class="st2" points="146.4,230.65 142.61,230.65 142.61,226.86 					"/>
					<path class="st4" d="M142.61,219.31V128.7c0-2.69,2.18-4.87,4.87-4.87h113.18c2.69,0,4.87,2.18,4.87,4.87v94.39"/>
				</g>
			</g>
			<path class="st5" d="M305.08,198.67H182.17V96.72c0-2.69,2.18-4.87,4.87-4.87h113.18c2.69,0,4.87,2.18,4.87,4.87V198.67z"/>
			<path class="st0" d="M280.67,215.5H157.76V113.55c0-2.69,2.18-4.87,4.87-4.87h113.18c2.69,0,4.87,2.18,4.87,4.87V215.5z"/>
			<path class="st6" d="M280.67,129.41H157.76v-15.86c0-2.69,2.18-4.87,4.87-4.87h113.18c2.69,0,4.87,2.18,4.87,4.87V129.41z"/>
			<g>
				<g>
					<line class="st7" x1="201" y1="183.93" x2="206.42" y2="198.79"/>
					<line class="st7" x1="206.76" y1="182.89" x2="211.84" y2="196.81"/>
					<line class="st7" x1="212.23" y1="184.66" x2="198.3" y2="189.74"/>
					<line class="st7" x1="214.2" y1="190.08" x2="201.21" y2="194.82"/>
				</g>
				<g>
					<g>
						<line class="st8" x1="223.29" y1="162.73" x2="234.45" y2="173.64"/>
						<line class="st8" x1="223.42" y1="173.76" x2="234.32" y2="162.6"/>
					</g>
					<g>
						<line class="st8" x1="250.82" y1="162.41" x2="261.99" y2="173.31"/>
						<line class="st8" x1="250.95" y1="173.44" x2="261.86" y2="162.28"/>
					</g>
					<path class="st9" d="M222.71,209.24c-0.13-11.27,8.9-20.52,20.17-20.65l0,0c11.27-0.13,20.52,8.9,20.65,20.17L222.71,209.24z"
						/>
					<path class="st7" d="M222.71,209.24c-0.13-11.27,8.9-20.52,20.17-20.65l0,0c11.27-0.13,20.52,8.9,20.65,20.17L222.71,209.24z"
						/>
					<path class="st10" d="M252.47,223.69L252.47,223.69c-3.38,0.04-6.15-2.67-6.19-6.05l-0.14-11.74l12.25-0.14l0.14,11.74
						C258.57,220.88,255.86,223.65,252.47,223.69z"/>
					<path class="st7" d="M252.47,223.69L252.47,223.69c-3.38,0.04-6.15-2.67-6.19-6.05l-0.14-11.74l12.25-0.14l0.14,11.74
						C258.57,220.88,255.86,223.65,252.47,223.69z"/>
				</g>
			</g>
			<g>
				<g>
					<path class="st11" d="M172.15,119.9c0,1.48-1.2,2.68-2.68,2.68c-1.48,0-2.68-1.2-2.68-2.68c0-1.48,1.2-2.68,2.68-2.68
						C170.95,117.22,172.15,118.42,172.15,119.9z"/>
					<path class="st10" d="M185.32,119.9c0,1.48-1.2,2.68-2.68,2.68c-1.48,0-2.68-1.2-2.68-2.68c0-1.48,1.2-2.68,2.68-2.68
						C184.12,117.22,185.32,118.42,185.32,119.9z"/>
					<path class="st1" d="M198.49,119.9c0,1.48-1.2,2.68-2.68,2.68c-1.48,0-2.68-1.2-2.68-2.68c0-1.48,1.2-2.68,2.68-2.68
						C197.29,117.22,198.49,118.42,198.49,119.9z"/>
				</g>
				<g>
					<g>
						<path d="M169.47,117.22c1.48,0,2.68,1.2,2.68,2.68c0,1.48-1.2,2.68-2.68,2.68c-1.48,0-2.68-1.2-2.68-2.68
							C166.79,118.42,167.99,117.22,169.47,117.22 M169.47,115.96c-2.18,0-3.94,1.77-3.94,3.94c0,2.18,1.77,3.94,3.94,3.94
							c2.18,0,3.95-1.77,3.95-3.94C173.41,117.73,171.64,115.96,169.47,115.96L169.47,115.96z"/>
					</g>
					<g>
						<path d="M182.64,117.22c1.48,0,2.68,1.2,2.68,2.68c0,1.48-1.2,2.68-2.68,2.68c-1.48,0-2.68-1.2-2.68-2.68
							C179.95,118.42,181.15,117.22,182.64,117.22 M182.64,115.96c-2.18,0-3.95,1.77-3.95,3.94c0,2.18,1.77,3.94,3.95,3.94
							c2.18,0,3.94-1.77,3.94-3.94C186.58,117.73,184.81,115.96,182.64,115.96L182.64,115.96z"/>
					</g>
					<g>
						<path d="M195.81,117.22c1.48,0,2.68,1.2,2.68,2.68c0,1.48-1.2,2.68-2.68,2.68c-1.48,0-2.68-1.2-2.68-2.68
							C193.12,118.42,194.32,117.22,195.81,117.22 M195.81,115.96c-2.18,0-3.95,1.77-3.95,3.94c0,2.18,1.77,3.94,3.95,3.94
							c2.18,0,3.94-1.77,3.94-3.94C199.75,117.73,197.98,115.96,195.81,115.96L195.81,115.96z"/>
					</g>
				</g>
			</g>
		</g>
		<g>
			<g>
				<path d="M119.82,76.36c-0.48-1.64-0.63-3.26-0.46-4.86c0.17-1.6,0.68-3.14,1.53-4.62c0.85-1.47,2.04-2.8,3.59-3.99
					c1.99-1.53,3.86-2.53,5.61-3c1.75-0.48,3.34-0.62,4.78-0.43c1.44,0.19,2.69,0.62,3.76,1.29c1.07,0.67,1.92,1.41,2.54,2.22
					c1.03,1.34,1.71,2.59,2.02,3.72c0.32,1.14,0.45,2.21,0.41,3.23c-0.04,1.01-0.22,1.98-0.51,2.9c-0.3,0.92-0.56,1.81-0.79,2.67
					c-0.23,0.87-0.34,1.74-0.35,2.64c0,0.89,0.26,1.81,0.79,2.73l1.23,1.6l-5.67,4.36l-1.45-1.89c-0.84-1.27-1.38-2.46-1.63-3.56
					c-0.25-1.1-0.34-2.14-0.27-3.1c0.06-0.96,0.21-1.87,0.45-2.72c0.24-0.85,0.43-1.67,0.59-2.45c0.15-0.79,0.18-1.55,0.09-2.28
					c-0.09-0.73-0.44-1.46-1.05-2.2c-0.99-1.29-2.04-2-3.14-2.13c-1.1-0.13-2.22,0.23-3.34,1.09c-0.76,0.58-1.3,1.23-1.62,1.94
					c-0.32,0.71-0.47,1.45-0.44,2.21c0.03,0.76,0.21,1.53,0.55,2.32c0.34,0.79,0.8,1.56,1.38,2.32l-6.18,4.74
					C121.1,79.58,120.3,77.99,119.82,76.36z M146.25,84.72l4.97,6.47l-6.6,5.07l-4.97-6.47L146.25,84.72z"/>
			</g>
			<g>
				<path d="M124.57,113.6c-0.9-0.49-1.66-1.12-2.26-1.88c-0.61-0.76-1.05-1.63-1.31-2.62c-0.27-0.99-0.32-2.07-0.17-3.23
					c0.2-1.5,0.57-2.72,1.11-3.67c0.54-0.95,1.16-1.69,1.85-2.22c0.69-0.53,1.41-0.88,2.15-1.05c0.74-0.17,1.42-0.22,2.03-0.14
					c1.01,0.13,1.83,0.38,2.45,0.72c0.62,0.35,1.14,0.75,1.55,1.2c0.41,0.45,0.75,0.94,1.02,1.45c0.26,0.52,0.53,1.01,0.8,1.47
					c0.27,0.47,0.6,0.89,0.98,1.27c0.38,0.38,0.88,0.66,1.5,0.83l1.2,0.16l-0.56,4.27l-1.42-0.19c-0.9-0.18-1.64-0.46-2.21-0.82
					c-0.57-0.37-1.05-0.77-1.44-1.2c-0.38-0.44-0.7-0.89-0.97-1.35c-0.26-0.46-0.53-0.9-0.8-1.3c-0.27-0.4-0.58-0.74-0.93-1.01
					c-0.35-0.27-0.81-0.43-1.39-0.49c-0.97-0.13-1.72,0.02-2.25,0.43c-0.53,0.41-0.85,1.04-0.96,1.89
					c-0.08,0.57-0.03,1.08,0.14,1.52c0.17,0.44,0.42,0.82,0.75,1.13c0.34,0.31,0.74,0.57,1.22,0.76c0.48,0.19,1,0.33,1.57,0.4
					l-0.61,4.65C126.49,114.43,125.48,114.1,124.57,113.6z M139.4,105.91l4.88,0.64l-0.65,4.97l-4.88-0.64L139.4,105.91z"/>
			</g>
			<g>
				<path d="M158.82,75.92c0.36-0.96,0.87-1.8,1.53-2.51c0.66-0.71,1.46-1.27,2.4-1.68c0.94-0.41,2-0.62,3.17-0.63
					c1.51-0.02,2.78,0.17,3.79,0.57c1.02,0.4,1.84,0.91,2.46,1.52c0.63,0.61,1.08,1.27,1.35,1.98c0.28,0.71,0.42,1.37,0.43,1.99
					c0.01,1.02-0.11,1.86-0.36,2.53c-0.26,0.66-0.58,1.23-0.97,1.71c-0.39,0.47-0.82,0.88-1.29,1.21c-0.47,0.34-0.92,0.67-1.34,1.01
					c-0.42,0.34-0.79,0.72-1.12,1.15c-0.32,0.43-0.52,0.97-0.6,1.61l0.02,1.21l-4.31,0.06l-0.02-1.44c0.05-0.92,0.22-1.69,0.5-2.31
					c0.28-0.62,0.61-1.15,0.98-1.59c0.38-0.44,0.78-0.82,1.2-1.15c0.42-0.32,0.81-0.65,1.17-0.97c0.36-0.32,0.65-0.68,0.86-1.07
					c0.22-0.39,0.31-0.87,0.28-1.44c-0.01-0.98-0.26-1.7-0.75-2.16c-0.49-0.46-1.15-0.69-2-0.68c-0.57,0.01-1.07,0.13-1.48,0.36
					c-0.41,0.23-0.75,0.53-1.01,0.91c-0.26,0.38-0.45,0.82-0.57,1.32c-0.12,0.5-0.18,1.04-0.17,1.61l-4.69,0.06
					C158.28,77.94,158.46,76.88,158.82,75.92z M168.57,89.49l0.07,4.92l-5.01,0.07l-0.07-4.92L168.57,89.49z"/>
			</g>
		</g>
		<g>
			<g>
				<path d="M426.2,218.66h-19.65c-0.47,0-0.86,0.38-0.86,0.86c0,0.47,0.38,0.86,0.86,0.86h19.65c0.47,0,0.86-0.38,0.86-0.86
					C427.06,219.05,426.67,218.66,426.2,218.66z"/>
				<path d="M400.3,218.66h-3.84c-0.47,0-0.86,0.38-0.86,0.86s0.38,0.86,0.86,0.86h3.84c0.47,0,0.86-0.38,0.86-0.86
					S400.77,218.66,400.3,218.66z"/>
				<path d="M416.97,225.51c0,0.47-0.38,0.86-0.86,0.86h-2.46c-0.47,0-0.86-0.38-0.86-0.86c0-0.47,0.38-0.86,0.86-0.86h2.46
					C416.58,224.65,416.97,225.04,416.97,225.51z M410.21,225.51c0,0.47-0.38,0.86-0.86,0.86h-4.3c-0.47,0-0.86-0.38-0.86-0.86
					c0-0.47,0.38-0.86,0.86-0.86h4.3C409.83,224.65,410.21,225.04,410.21,225.51z M401.62,225.51c0,0.47-0.38,0.86-0.86,0.86h-4.3
					c-0.47,0-0.86-0.38-0.86-0.86c0-0.47,0.38-0.86,0.86-0.86h4.3C401.23,224.65,401.62,225.04,401.62,225.51z"/>
			</g>
			<g>
				<path d="M429.87,236.4c-0.47,0-0.86,0.38-0.86,0.86v1.99c0,0.47,0.38,0.86,0.86,0.86c0.47,0,0.86-0.38,0.86-0.86v-1.99
					C430.73,236.78,430.34,236.4,429.87,236.4z"/>
				<path d="M427.62,234.4h-1.99c-0.47,0-0.86,0.38-0.86,0.86s0.38,0.86,0.86,0.86h1.99c0.47,0,0.86-0.38,0.86-0.86
					S428.09,234.4,427.62,234.4z"/>
				<path d="M429.87,230.26c-0.47,0-0.86,0.38-0.86,0.86v1.99c0,0.47,0.38,0.86,0.86,0.86c0.47,0,0.86-0.38,0.86-0.86v-1.99
					C430.73,230.65,430.34,230.26,429.87,230.26z"/>
				<path d="M434.11,234.26h-1.99c-0.47,0-0.86,0.38-0.86,0.86c0,0.47,0.38,0.86,0.86,0.86h1.99c0.47,0,0.86-0.38,0.86-0.86
					C434.97,234.64,434.58,234.26,434.11,234.26z"/>
			</g>
			<g>
				<path d="M127.1,18.13c-0.47,0-0.86,0.38-0.86,0.86v1.99c0,0.47,0.38,0.86,0.86,0.86c0.47,0,0.86-0.38,0.86-0.86v-1.99
					C127.95,18.51,127.57,18.13,127.1,18.13z"/>
				<path d="M124.85,16.13h-1.99c-0.47,0-0.86,0.38-0.86,0.86c0,0.47,0.39,0.86,0.86,0.86h1.99c0.47,0,0.86-0.38,0.86-0.86
					C125.71,16.51,125.32,16.13,124.85,16.13z"/>
				<path d="M127.1,12c-0.47,0-0.86,0.38-0.86,0.86v1.99c0,0.47,0.38,0.86,0.86,0.86c0.47,0,0.86-0.38,0.86-0.86v-1.99
					C127.95,12.38,127.57,12,127.1,12z"/>
				<path d="M131.34,15.99h-1.99c-0.47,0-0.86,0.38-0.86,0.86c0,0.47,0.38,0.86,0.86,0.86h1.99c0.47,0,0.86-0.38,0.86-0.86
					C132.2,16.38,131.81,15.99,131.34,15.99z"/>
			</g>
			<g>
				<path d="M253.39,9.04h19.65c0.47,0,0.86-0.38,0.86-0.86c0-0.47-0.38-0.86-0.86-0.86h-19.65c-0.47,0-0.86,0.38-0.86,0.86
					C252.53,8.65,252.92,9.04,253.39,9.04z"/>
				<path d="M279.3,9.04h3.84c0.47,0,0.86-0.38,0.86-0.86c0-0.47-0.38-0.86-0.86-0.86h-3.84c-0.47,0-0.86,0.38-0.86,0.86
					C278.44,8.66,278.82,9.04,279.3,9.04z"/>
				<path d="M262.63,2.19c0-0.47,0.38-0.86,0.86-0.86h2.46c0.47,0,0.86,0.38,0.86,0.86c0,0.47-0.38,0.86-0.86,0.86h-2.46
					C263.01,3.05,262.63,2.67,262.63,2.19z M269.38,2.19c0-0.47,0.38-0.86,0.86-0.86h4.3c0.47,0,0.86,0.38,0.86,0.86
					c0,0.47-0.38,0.86-0.86,0.86h-4.3C269.77,3.05,269.38,2.67,269.38,2.19z M277.98,2.19c0-0.47,0.38-0.86,0.86-0.86h4.3
					c0.47,0,0.86,0.38,0.86,0.86c0,0.47-0.38,0.86-0.86,0.86h-4.3C278.36,3.05,277.98,2.67,277.98,2.19z"/>
			</g>
			<g>
				<path d="M402.33,33.46c0.47,0,0.86-0.38,0.86-0.86V30.6c0-0.47-0.38-0.86-0.86-0.86c-0.47,0-0.86,0.38-0.86,0.86v1.99
					C401.47,33.07,401.86,33.46,402.33,33.46z"/>
				<path d="M404.58,35.46h1.99c0.47,0,0.86-0.38,0.86-0.86c0-0.47-0.38-0.86-0.86-0.86h-1.99c-0.47,0-0.86,0.38-0.86,0.86
					C403.72,35.07,404.11,35.46,404.58,35.46z"/>
				<path d="M402.33,39.59c0.47,0,0.86-0.38,0.86-0.86v-1.99c0-0.47-0.38-0.86-0.86-0.86c-0.47,0-0.86,0.38-0.86,0.86v1.99
					C401.47,39.2,401.86,39.59,402.33,39.59z"/>
				<path d="M398.09,35.6h1.99c0.47,0,0.86-0.38,0.86-0.86c0-0.47-0.38-0.86-0.86-0.86h-1.99c-0.47,0-0.86,0.38-0.86,0.86
					C397.23,35.21,397.61,35.6,398.09,35.6z"/>
			</g>
			<g>
				<path d="M84.84,65.85h19.65c0.47,0,0.86-0.38,0.86-0.86c0-0.47-0.38-0.86-0.86-0.86H84.84c-0.47,0-0.86,0.38-0.86,0.86
					C83.98,65.47,84.36,65.85,84.84,65.85z"/>
				<path d="M74.74,65.85h3.84c0.47,0,0.86-0.38,0.86-0.86c0-0.47-0.38-0.86-0.86-0.86h-3.84c-0.47,0-0.86,0.38-0.86,0.86
					C73.88,65.47,74.27,65.85,74.74,65.85z"/>
			</g>
			<path d="M394.48,106c0,0,0.41,2.92-3,2.85c0,0,2.93,0.03,2.85,2.77c0,0,0.26-2.15,2.95-2.64
				C397.29,108.98,395.02,109.5,394.48,106z"/>
			<path d="M232.48,0c0,0,0.41,2.92-3,2.85c0,0,2.93,0.03,2.85,2.77c0,0,0.26-2.15,2.95-2.64C235.29,2.98,233.02,3.5,232.48,0z"/>
			<path d="M69.68,104.87c0,0,0.41,2.92-3,2.85c0,0,2.93,0.03,2.85,2.77c0,0,0.26-2.15,2.95-2.64
				C72.49,107.85,70.21,108.37,69.68,104.87z"/>
			<path d="M96.91,219.95c0-1.59,1.29-2.88,2.88-2.88c1.59,0,2.88,1.29,2.88,2.88c0,1.59-1.29,2.88-2.88,2.88
				C98.2,222.82,96.91,221.53,96.91,219.95z M98.34,219.95c0,0.8,0.65,1.45,1.45,1.45c0.8,0,1.45-0.65,1.45-1.45
				c0-0.8-0.65-1.45-1.45-1.45C98.99,218.49,98.34,219.14,98.34,219.95z"/>
			<path d="M343.32,163.79c0-1.59,1.29-2.88,2.88-2.88c1.59,0,2.88,1.29,2.88,2.88c0,1.59-1.29,2.88-2.88,2.88
				C344.61,166.67,343.32,165.38,343.32,163.79z M344.74,163.79c0,0.8,0.65,1.45,1.45,1.45c0.8,0,1.45-0.65,1.45-1.45
				c0-0.8-0.65-1.45-1.45-1.45C345.4,162.34,344.74,162.99,344.74,163.79z"/>
			<path d="M255.87,249.87c0-1.59,1.29-2.88,2.88-2.88c1.59,0,2.88,1.29,2.88,2.88c0,1.59-1.29,2.88-2.88,2.88
				C257.16,252.75,255.87,251.46,255.87,249.87z M257.3,249.87c0,0.8,0.65,1.45,1.45,1.45c0.8,0,1.45-0.65,1.45-1.45
				c0-0.8-0.65-1.45-1.45-1.45C257.95,248.42,257.3,249.07,257.3,249.87z"/>
			<path d="M210.17,55.7c0-1.59,1.29-2.88,2.88-2.88c1.59,0,2.88,1.29,2.88,2.88s-1.29,2.88-2.88,2.88
				C211.46,58.58,210.17,57.29,210.17,55.7z M211.59,55.7c0,0.8,0.65,1.45,1.45,1.45c0.8,0,1.45-0.65,1.45-1.45
				c0-0.8-0.65-1.45-1.45-1.45C212.25,54.25,211.59,54.9,211.59,55.7z"/>
			<g>
				<g>
					<path d="M311.36,41.54h-3.19c-0.39,0-0.71,0.32-0.71,0.71s0.32,0.71,0.71,0.71h3.19c0.39,0,0.71-0.32,0.71-0.71
						S311.75,41.54,311.36,41.54z"/>
					<path d="M332.86,41.54h-16.31c-0.39,0-0.71,0.32-0.71,0.71c0,0.39,0.32,0.71,0.71,0.71h16.31c0.39,0,0.71-0.32,0.71-0.71
						C333.57,41.86,333.25,41.54,332.86,41.54z"/>
					<path d="M325.2,47.22c0,0.39-0.32,0.71-0.71,0.71h-2.04c-0.39,0-0.71-0.32-0.71-0.71c0-0.39,0.32-0.71,0.71-0.71h2.04
						C324.88,46.51,325.2,46.83,325.2,47.22z M319.59,47.22c0,0.39-0.32,0.71-0.71,0.71h-3.57c-0.39,0-0.71-0.32-0.71-0.71
						c0-0.39,0.32-0.71,0.71-0.71h3.57C319.27,46.51,319.59,46.83,319.59,47.22z M312.45,47.22c0,0.39-0.32,0.71-0.71,0.71h-3.57
						c-0.39,0-0.71-0.32-0.71-0.71c0-0.39,0.32-0.71,0.71-0.71h3.57C312.13,46.51,312.45,46.83,312.45,47.22z"/>
				</g>
			</g>
			<g>
				<g>
					<path d="M113.46,192.97c-0.39,0-0.71,0.32-0.71,0.71v1.66c0,0.39,0.32,0.71,0.71,0.71c0.39,0,0.71-0.32,0.71-0.71v-1.66
						C114.18,193.29,113.86,192.97,113.46,192.97z"/>
					<path d="M111.6,191.31h-1.65c-0.39,0-0.71,0.32-0.71,0.71c0,0.39,0.32,0.71,0.71,0.71h1.65c0.39,0,0.71-0.32,0.71-0.71
						C112.31,191.63,111.99,191.31,111.6,191.31z"/>
					<path d="M113.46,187.88c-0.39,0-0.71,0.32-0.71,0.71v1.65c0,0.39,0.32,0.71,0.71,0.71c0.39,0,0.71-0.32,0.71-0.71v-1.65
						C114.18,188.2,113.86,187.88,113.46,187.88z"/>
					<path d="M116.99,191.19h-1.65c-0.39,0-0.71,0.32-0.71,0.71s0.32,0.71,0.71,0.71h1.65c0.39,0,0.71-0.32,0.71-0.71
						S117.38,191.19,116.99,191.19z"/>
				</g>
			</g>
			<g>
				<g>
					<path d="M333.67,137.96c-0.39,0-0.71,0.32-0.71,0.71v1.66c0,0.39,0.32,0.71,0.71,0.71s0.71-0.32,0.71-0.71v-1.66
						C334.39,138.27,334.07,137.96,333.67,137.96z"/>
					<path d="M331.81,136.3h-1.65c-0.39,0-0.71,0.32-0.71,0.71c0,0.39,0.32,0.71,0.71,0.71h1.65c0.39,0,0.71-0.32,0.71-0.71
						C332.52,136.62,332.2,136.3,331.81,136.3z"/>
					<path d="M333.67,132.87c-0.39,0-0.71,0.32-0.71,0.71v1.65c0,0.39,0.32,0.71,0.71,0.71s0.71-0.32,0.71-0.71v-1.65
						C334.39,133.19,334.07,132.87,333.67,132.87z"/>
					<path d="M337.2,136.18h-1.65c-0.39,0-0.71,0.32-0.71,0.71s0.32,0.71,0.71,0.71h1.65c0.39,0,0.71-0.32,0.71-0.71
						S337.59,136.18,337.2,136.18z"/>
				</g>
			</g>
			<g>
				<g>
					<path d="M245.94,69.15c-0.39,0-0.71,0.32-0.71,0.71v1.66c0,0.39,0.32,0.71,0.71,0.71c0.39,0,0.71-0.32,0.71-0.71v-1.66
						C246.66,69.47,246.34,69.15,245.94,69.15z"/>
					<path d="M244.08,67.49h-1.65c-0.39,0-0.71,0.32-0.71,0.71c0,0.39,0.32,0.71,0.71,0.71h1.65c0.39,0,0.71-0.32,0.71-0.71
						C244.79,67.81,244.47,67.49,244.08,67.49z"/>
					<path d="M245.94,64.06c-0.39,0-0.71,0.32-0.71,0.71v1.65c0,0.39,0.32,0.71,0.71,0.71c0.39,0,0.71-0.32,0.71-0.71v-1.65
						C246.66,64.38,246.34,64.06,245.94,64.06z"/>
					<path d="M249.47,67.38h-1.65c-0.39,0-0.71,0.32-0.71,0.71c0,0.39,0.32,0.71,0.71,0.71h1.65c0.39,0,0.71-0.32,0.71-0.71
						C250.18,67.7,249.86,67.38,249.47,67.38z"/>
				</g>
			</g>
			<g>
				<g>
					<path d="M294.13,225.39c-0.39,0-0.71,0.32-0.71,0.71v1.66c0,0.39,0.32,0.71,0.71,0.71c0.39,0,0.71-0.32,0.71-0.71v-1.66
						C294.85,225.71,294.53,225.39,294.13,225.39z"/>
					<path d="M292.27,223.73h-1.65c-0.39,0-0.71,0.32-0.71,0.71s0.32,0.71,0.71,0.71h1.65c0.39,0,0.71-0.32,0.71-0.71
						S292.66,223.73,292.27,223.73z"/>
					<path d="M294.13,220.3c-0.39,0-0.71,0.32-0.71,0.71v1.65c0,0.39,0.32,0.71,0.71,0.71c0.39,0,0.71-0.32,0.71-0.71v-1.65
						C294.85,220.62,294.53,220.3,294.13,220.3z"/>
					<path d="M297.66,223.61H296c-0.39,0-0.71,0.32-0.71,0.71c0,0.39,0.32,0.71,0.71,0.71h1.65c0.39,0,0.71-0.32,0.71-0.71
						C298.37,223.93,298.05,223.61,297.66,223.61z"/>
				</g>
			</g>
			<g>
				<g>
					<path d="M333.07,202.33h16.31c0.39,0,0.71-0.32,0.71-0.71c0-0.39-0.32-0.71-0.71-0.71h-16.31c-0.39,0-0.71,0.32-0.71,0.71
						C332.36,202.01,332.67,202.33,333.07,202.33z"/>
					<path d="M324.69,202.33h3.19c0.39,0,0.71-0.32,0.71-0.71c0-0.39-0.32-0.71-0.71-0.71h-3.19c-0.39,0-0.71,0.32-0.71,0.71
						C323.98,202.01,324.3,202.33,324.69,202.33z"/>
				</g>
			</g>
			<g>
				<g>
					<path d="M117.94,272.37h16.31c0.39,0,0.71-0.32,0.71-0.71c0-0.39-0.32-0.71-0.71-0.71h-16.31c-0.39,0-0.71,0.32-0.71,0.71
						C117.23,272.05,117.55,272.37,117.94,272.37z"/>
					<path d="M109.56,272.37h3.19c0.39,0,0.71-0.32,0.71-0.71c0-0.39-0.32-0.71-0.71-0.71h-3.19c-0.39,0-0.71,0.32-0.71,0.71
						C108.85,272.05,109.17,272.37,109.56,272.37z"/>
				</g>
			</g>
			<g>
				<path d="M301.09,242.13c-0.47,0-0.86,0.38-0.86,0.86v1.99c0,0.47,0.38,0.86,0.86,0.86c0.47,0,0.86-0.38,0.86-0.86v-1.99
					C301.95,242.51,301.57,242.13,301.09,242.13z"/>
				<path d="M298.84,240.13h-1.99c-0.47,0-0.86,0.38-0.86,0.86c0,0.47,0.38,0.86,0.86,0.86h1.99c0.47,0,0.86-0.38,0.86-0.86
					C299.7,240.51,299.32,240.13,298.84,240.13z"/>
				<path d="M301.09,236c-0.47,0-0.86,0.38-0.86,0.86v1.99c0,0.47,0.38,0.86,0.86,0.86c0.47,0,0.86-0.38,0.86-0.86v-1.99
					C301.95,236.38,301.57,236,301.09,236z"/>
				<path d="M305.34,239.99h-1.99c-0.47,0-0.86,0.38-0.86,0.86c0,0.47,0.38,0.86,0.86,0.86h1.99c0.47,0,0.86-0.38,0.86-0.86
					C306.2,240.38,305.81,239.99,305.34,239.99z"/>
			</g>
		</g>
	</g>
</g>
<g id="DESIGNED_BY_FREEPIK">
</g>
</svg>
